<svg xmlns="http://www.w3.org/2000/svg" width="57" height="66" viewBox="0 0 57 66">
  <path id="Icon_awesome-file-alt" data-name="Icon awesome-file-alt" d="M33.25,17.531V0H3.563A3.345,3.345,0,0,0,0,3.094V62.906A3.345,3.345,0,0,0,3.563,66H53.438A3.345,3.345,0,0,0,57,62.906V20.625H36.813A3.363,3.363,0,0,1,33.25,17.531Zm9.5,30.422A1.681,1.681,0,0,1,40.969,49.5H16.031a1.681,1.681,0,0,1-1.781-1.547V46.922a1.681,1.681,0,0,1,1.781-1.547H40.969a1.681,1.681,0,0,1,1.781,1.547Zm0-8.25a1.681,1.681,0,0,1-1.781,1.547H16.031A1.681,1.681,0,0,1,14.25,39.7V38.672a1.681,1.681,0,0,1,1.781-1.547H40.969a1.681,1.681,0,0,1,1.781,1.547Zm0-9.281v1.031A1.681,1.681,0,0,1,40.969,33H16.031a1.681,1.681,0,0,1-1.781-1.547V30.422a1.681,1.681,0,0,1,1.781-1.547H40.969A1.681,1.681,0,0,1,42.75,30.422ZM57,15.714V16.5H38V0h.905a3.853,3.853,0,0,1,2.523.9L55.961,13.535A2.893,2.893,0,0,1,57,15.714Z" fill="#9b5067"/>
</svg>
