<svg xmlns="http://www.w3.org/2000/svg" xmlns:xlink="http://www.w3.org/1999/xlink" width="37" height="37" viewBox="0 0 37 37">
  <defs>
    <clipPath id="clip-path">
      <path id="Path_2" data-name="Path 2" d="M18.5,37A18.5,18.5,0,1,1,37,18.5,18.5,18.5,0,0,1,18.5,37Z" fill="none" stroke="#eeedf1" stroke-width="5"/>
    </clipPath>
  </defs>
  <g id="Mask_Group_1" data-name="Mask Group 1" clip-path="url(#clip-path)">
    <g id="Path_1" data-name="Path 1" transform="translate(9 4)" fill="none">
      <path d="M18.5,37A18.5,18.5,0,1,1,37,18.5,18.5,18.5,0,0,1,18.5,37Z" stroke="none"/>
      <path d="M 18.5 32 C 22.10597991943359 32 25.49612998962402 30.59576034545898 28.04594039916992 28.04594039916992 C 30.59576034545898 25.49612998962402 32 22.10597991943359 32 18.5 C 32 14.89402008056641 30.59576034545898 11.50387001037598 28.04594039916992 8.954059600830078 C 25.49612998962402 6.404240131378174 22.10597991943359 5 18.5 5 C 14.89402008056641 5 11.50387001037598 6.404240131378174 8.954059600830078 8.954059600830078 C 6.404240131378174 11.50387001037598 5 14.89402008056641 5 18.5 C 5 22.10597991943359 6.404240131378174 25.49612998962402 8.954059600830078 28.04594039916992 C 11.50387001037598 30.59576034545898 14.89402008056641 32 18.5 32 M 18.5 37 C 8.282730102539063 37 0 28.71726989746094 0 18.5 C 0 8.282730102539063 8.282730102539063 0 18.5 0 C 28.71726989746094 0 37 8.282730102539063 37 18.5 C 37 28.71726989746094 28.71726989746094 37 18.5 37 Z" stroke="none" fill="#eeedf1"/>
    </g>
  </g>
</svg>
